<svg width="256" height="62" viewBox="0 0 256 62" fill="none" xmlns="http://www.w3.org/2000/svg">
    <rect width="256" height="62" rx="8" fill="white" />
    <path
        d="M84.952 39L92.44 22.2H96.28L103.792 39H99.712L93.568 24.168H95.104L88.936 39H84.952ZM88.696 35.4L89.728 32.448H98.368L99.424 35.4H88.696ZM112.903 39.192C111.815 39.192 110.863 38.952 110.047 38.472C109.231 37.992 108.591 37.264 108.127 36.288C107.679 35.296 107.455 34.048 107.455 32.544C107.455 31.024 107.671 29.776 108.103 28.8C108.535 27.824 109.159 27.096 109.975 26.616C110.791 26.136 111.767 25.896 112.903 25.896C114.119 25.896 115.207 26.176 116.167 26.736C117.143 27.28 117.911 28.048 118.471 29.04C119.047 30.032 119.335 31.2 119.335 32.544C119.335 33.904 119.047 35.08 118.471 36.072C117.911 37.064 117.143 37.832 116.167 38.376C115.207 38.92 114.119 39.192 112.903 39.192ZM105.271 43.656V26.088H108.847V28.728L108.775 32.568L109.015 36.384V43.656H105.271ZM112.255 36.12C112.879 36.12 113.431 35.976 113.911 35.688C114.407 35.4 114.799 34.992 115.087 34.464C115.391 33.92 115.543 33.28 115.543 32.544C115.543 31.792 115.391 31.152 115.087 30.624C114.799 30.096 114.407 29.688 113.911 29.4C113.431 29.112 112.879 28.968 112.255 28.968C111.631 28.968 111.071 29.112 110.575 29.4C110.079 29.688 109.687 30.096 109.399 30.624C109.111 31.152 108.967 31.792 108.967 32.544C108.967 33.28 109.111 33.92 109.399 34.464C109.687 34.992 110.079 35.4 110.575 35.688C111.071 35.976 111.631 36.12 112.255 36.12ZM129.473 39.192C128.385 39.192 127.433 38.952 126.617 38.472C125.801 37.992 125.161 37.264 124.697 36.288C124.249 35.296 124.025 34.048 124.025 32.544C124.025 31.024 124.241 29.776 124.673 28.8C125.105 27.824 125.729 27.096 126.545 26.616C127.361 26.136 128.337 25.896 129.473 25.896C130.689 25.896 131.777 26.176 132.737 26.736C133.713 27.28 134.481 28.048 135.041 29.04C135.617 30.032 135.905 31.2 135.905 32.544C135.905 33.904 135.617 35.08 135.041 36.072C134.481 37.064 133.713 37.832 132.737 38.376C131.777 38.92 130.689 39.192 129.473 39.192ZM121.841 43.656V26.088H125.417V28.728L125.345 32.568L125.585 36.384V43.656H121.841ZM128.825 36.12C129.449 36.12 130.001 35.976 130.481 35.688C130.977 35.4 131.369 34.992 131.657 34.464C131.961 33.92 132.113 33.28 132.113 32.544C132.113 31.792 131.961 31.152 131.657 30.624C131.369 30.096 130.977 29.688 130.481 29.4C130.001 29.112 129.449 28.968 128.825 28.968C128.201 28.968 127.641 29.112 127.145 29.4C126.649 29.688 126.257 30.096 125.969 30.624C125.681 31.152 125.537 31.792 125.537 32.544C125.537 33.28 125.681 33.92 125.969 34.464C126.257 34.992 126.649 35.4 127.145 35.688C127.641 35.976 128.201 36.12 128.825 36.12ZM150.992 39.288C149.648 39.288 148.36 39.112 147.128 38.76C145.896 38.392 144.904 37.92 144.152 37.344L145.472 34.416C146.192 34.928 147.04 35.352 148.016 35.688C149.008 36.008 150.008 36.168 151.016 36.168C151.784 36.168 152.4 36.096 152.864 35.952C153.344 35.792 153.696 35.576 153.92 35.304C154.144 35.032 154.256 34.72 154.256 34.368C154.256 33.92 154.08 33.568 153.728 33.312C153.376 33.04 152.912 32.824 152.336 32.664C151.76 32.488 151.12 32.328 150.416 32.184C149.728 32.024 149.032 31.832 148.328 31.608C147.64 31.384 147.008 31.096 146.432 30.744C145.856 30.392 145.384 29.928 145.016 29.352C144.664 28.776 144.488 28.04 144.488 27.144C144.488 26.184 144.744 25.312 145.256 24.528C145.784 23.728 146.568 23.096 147.608 22.632C148.664 22.152 149.984 21.912 151.568 21.912C152.624 21.912 153.664 22.04 154.688 22.296C155.712 22.536 156.616 22.904 157.4 23.4L156.2 26.352C155.416 25.904 154.632 25.576 153.848 25.368C153.064 25.144 152.296 25.032 151.544 25.032C150.792 25.032 150.176 25.12 149.696 25.296C149.216 25.472 148.872 25.704 148.664 25.992C148.456 26.264 148.352 26.584 148.352 26.952C148.352 27.384 148.528 27.736 148.88 28.008C149.232 28.264 149.696 28.472 150.272 28.632C150.848 28.792 151.48 28.952 152.168 29.112C152.872 29.272 153.568 29.456 154.256 29.664C154.96 29.872 155.6 30.152 156.176 30.504C156.752 30.856 157.216 31.32 157.568 31.896C157.936 32.472 158.12 33.2 158.12 34.08C158.12 35.024 157.856 35.888 157.328 36.672C156.8 37.456 156.008 38.088 154.952 38.568C153.912 39.048 152.592 39.288 150.992 39.288ZM165.793 39.192C164.273 39.192 163.089 38.808 162.241 38.04C161.393 37.256 160.969 36.096 160.969 34.56V23.232H164.713V34.512C164.713 35.056 164.857 35.48 165.145 35.784C165.433 36.072 165.825 36.216 166.321 36.216C166.913 36.216 167.417 36.056 167.833 35.736L168.841 38.376C168.457 38.648 167.993 38.856 167.449 39C166.921 39.128 166.369 39.192 165.793 39.192ZM158.977 29.256V26.376H167.929V29.256H158.977ZM176.688 39.192C175.312 39.192 174.088 38.904 173.016 38.328C171.96 37.752 171.12 36.968 170.496 35.976C169.888 34.968 169.584 33.824 169.584 32.544C169.584 31.248 169.888 30.104 170.496 29.112C171.12 28.104 171.96 27.32 173.016 26.76C174.088 26.184 175.312 25.896 176.688 25.896C178.048 25.896 179.264 26.184 180.336 26.76C181.408 27.32 182.248 28.096 182.856 29.088C183.464 30.08 183.768 31.232 183.768 32.544C183.768 33.824 183.464 34.968 182.856 35.976C182.248 36.968 181.408 37.752 180.336 38.328C179.264 38.904 178.048 39.192 176.688 39.192ZM176.688 36.12C177.312 36.12 177.872 35.976 178.368 35.688C178.864 35.4 179.256 34.992 179.544 34.464C179.832 33.92 179.976 33.28 179.976 32.544C179.976 31.792 179.832 31.152 179.544 30.624C179.256 30.096 178.864 29.688 178.368 29.4C177.872 29.112 177.312 28.968 176.688 28.968C176.064 28.968 175.504 29.112 175.008 29.4C174.512 29.688 174.112 30.096 173.808 30.624C173.52 31.152 173.376 31.792 173.376 32.544C173.376 33.28 173.52 33.92 173.808 34.464C174.112 34.992 174.512 35.4 175.008 35.688C175.504 35.976 176.064 36.12 176.688 36.12ZM186.271 39V26.088H189.847V29.736L189.343 28.68C189.727 27.768 190.343 27.08 191.191 26.616C192.039 26.136 193.071 25.896 194.287 25.896V29.352C194.127 29.336 193.983 29.328 193.855 29.328C193.727 29.312 193.591 29.304 193.447 29.304C192.423 29.304 191.591 29.6 190.951 30.192C190.327 30.768 190.015 31.672 190.015 32.904V39H186.271ZM202.827 39.192C201.355 39.192 200.059 38.904 198.939 38.328C197.835 37.752 196.979 36.968 196.371 35.976C195.763 34.968 195.459 33.824 195.459 32.544C195.459 31.248 195.755 30.104 196.347 29.112C196.955 28.104 197.779 27.32 198.819 26.76C199.859 26.184 201.035 25.896 202.347 25.896C203.611 25.896 204.747 26.168 205.755 26.712C206.779 27.24 207.587 28.008 208.179 29.016C208.771 30.008 209.067 31.2 209.067 32.592C209.067 32.736 209.059 32.904 209.043 33.096C209.027 33.272 209.011 33.44 208.995 33.6H198.507V31.416H207.027L205.587 32.064C205.587 31.392 205.451 30.808 205.179 30.312C204.907 29.816 204.531 29.432 204.051 29.16C203.571 28.872 203.011 28.728 202.371 28.728C201.731 28.728 201.163 28.872 200.667 29.16C200.187 29.432 199.811 29.824 199.539 30.336C199.267 30.832 199.131 31.424 199.131 32.112V32.688C199.131 33.392 199.283 34.016 199.587 34.56C199.907 35.088 200.347 35.496 200.907 35.784C201.483 36.056 202.155 36.192 202.923 36.192C203.611 36.192 204.211 36.088 204.723 35.88C205.251 35.672 205.731 35.36 206.163 34.944L208.155 37.104C207.563 37.776 206.819 38.296 205.923 38.664C205.027 39.016 203.995 39.192 202.827 39.192Z"
        fill="#181818" />
    <path fill-rule="evenodd" clip-rule="evenodd"
        d="M66.2902 42.4984C67.5591 40.6068 68.0322 39.64 69 37.5172C61.8598 34.8689 60.7199 24.9275 67.7741 21.1232C65.6235 18.475 62.591 16.9407 59.7306 16.9407C57.666 16.9407 56.2466 17.4661 54.9777 17.9496C53.9023 18.3489 52.9345 18.7062 51.7302 18.7062C50.4398 18.7062 49.2999 18.3069 48.0955 17.8865C46.7836 17.4241 45.4071 16.9407 43.6866 16.9407C40.4821 16.9407 37.0626 18.8533 34.8904 22.1321C31.8364 26.756 32.3741 35.4154 37.2991 42.8137C39.0627 45.4619 41.4284 48.4254 44.5039 48.4675C45.7943 48.4885 46.633 48.1102 47.5579 47.7108C48.6117 47.2484 49.7515 46.744 51.7517 46.744C53.7518 46.723 54.8701 47.2484 55.924 47.7108C56.8272 48.1102 57.6445 48.4885 58.9134 48.4675C62.0318 48.4254 64.5266 45.1467 66.2902 42.4984Z"
        fill="black" />
    <path fill-rule="evenodd" clip-rule="evenodd"
        d="M59.2796 6.43176C59.6237 8.74373 58.6559 11.0347 57.387 12.6321C56.0321 14.3555 53.6664 15.7006 51.3867 15.6166C50.978 13.3887 52.0319 11.0977 53.3223 9.5634C54.7632 7.88197 57.1935 6.57889 59.2796 6.43176Z"
        fill="black" />
</svg>