<svg width="256" height="62" viewBox="0 0 256 62" fill="none" xmlns="http://www.w3.org/2000/svg">
    <rect width="256" height="62" rx="8" fill="white" />
    <path opacity="0.4"
        d="M57.1085 31.5686L48.9463 35.5458L43.1731 29.932L49.0006 24.2654L57.1085 28.225C58.5383 28.9113 58.5383 30.8823 57.1085 31.5686Z"
        fill="#FFCD01" />
    <path d="M49.0009 24.2657L43.1733 29.9324L25.6726 12.9149L49.0009 24.2657Z" fill="#01F177" />
    <path opacity="0.4"
        d="M43.1746 29.9326L25.8368 46.7919L24.8052 47.3021C23.5021 47.918 22 47.0205 22 45.6126V14.1823C22 12.7744 23.5021 11.8769 24.8052 12.4929L25.6739 12.9152L43.1746 29.9326Z"
        fill="#00DCFF" />
    <path d="M48.9462 35.5462L25.8352 46.7915L43.173 29.9324L48.9462 35.5462Z" fill="#F3324A" />
    <path
        d="M79.7798 39.288C78.4518 39.288 77.2278 39.08 76.1078 38.664C75.0038 38.232 74.0358 37.624 73.2038 36.84C72.3878 36.056 71.7478 35.136 71.2838 34.08C70.8358 33.024 70.6118 31.864 70.6118 30.6C70.6118 29.336 70.8358 28.176 71.2838 27.12C71.7478 26.064 72.3958 25.144 73.2278 24.36C74.0598 23.576 75.0358 22.976 76.1558 22.56C77.2758 22.128 78.5078 21.912 79.8518 21.912C81.3398 21.912 82.6758 22.16 83.8598 22.656C85.0598 23.152 86.0678 23.872 86.8838 24.816L84.3878 27.12C83.7798 26.48 83.1158 26.008 82.3958 25.704C81.6758 25.384 80.8918 25.224 80.0438 25.224C79.2278 25.224 78.4838 25.352 77.8118 25.608C77.1398 25.864 76.5558 26.232 76.0598 26.712C75.5798 27.192 75.2038 27.76 74.9318 28.416C74.6758 29.072 74.5478 29.8 74.5478 30.6C74.5478 31.384 74.6758 32.104 74.9318 32.76C75.2038 33.416 75.5798 33.992 76.0598 34.488C76.5558 34.968 77.1318 35.336 77.7878 35.592C78.4598 35.848 79.1958 35.976 79.9958 35.976C80.7638 35.976 81.5078 35.856 82.2278 35.616C82.9638 35.36 83.6758 34.936 84.3638 34.344L86.5718 37.152C85.6598 37.84 84.5958 38.368 83.3798 38.736C82.1798 39.104 80.9798 39.288 79.7798 39.288ZM83.0198 36.648V30.336H86.5718V37.152L83.0198 36.648ZM96.0634 39.192C94.6874 39.192 93.4634 38.904 92.3914 38.328C91.3354 37.752 90.4954 36.968 89.8714 35.976C89.2634 34.968 88.9594 33.824 88.9594 32.544C88.9594 31.248 89.2634 30.104 89.8714 29.112C90.4954 28.104 91.3354 27.32 92.3914 26.76C93.4634 26.184 94.6874 25.896 96.0634 25.896C97.4234 25.896 98.6394 26.184 99.7114 26.76C100.783 27.32 101.623 28.096 102.231 29.088C102.839 30.08 103.143 31.232 103.143 32.544C103.143 33.824 102.839 34.968 102.231 35.976C101.623 36.968 100.783 37.752 99.7114 38.328C98.6394 38.904 97.4234 39.192 96.0634 39.192ZM96.0634 36.12C96.6874 36.12 97.2474 35.976 97.7434 35.688C98.2394 35.4 98.6314 34.992 98.9194 34.464C99.2074 33.92 99.3514 33.28 99.3514 32.544C99.3514 31.792 99.2074 31.152 98.9194 30.624C98.6314 30.096 98.2394 29.688 97.7434 29.4C97.2474 29.112 96.6874 28.968 96.0634 28.968C95.4394 28.968 94.8794 29.112 94.3834 29.4C93.8874 29.688 93.4874 30.096 93.1834 30.624C92.8954 31.152 92.7514 31.792 92.7514 32.544C92.7514 33.28 92.8954 33.92 93.1834 34.464C93.4874 34.992 93.8874 35.4 94.3834 35.688C94.8794 35.976 95.4394 36.12 96.0634 36.12ZM111.79 39.192C110.414 39.192 109.19 38.904 108.118 38.328C107.062 37.752 106.222 36.968 105.598 35.976C104.99 34.968 104.686 33.824 104.686 32.544C104.686 31.248 104.99 30.104 105.598 29.112C106.222 28.104 107.062 27.32 108.118 26.76C109.19 26.184 110.414 25.896 111.79 25.896C113.15 25.896 114.366 26.184 115.438 26.76C116.51 27.32 117.35 28.096 117.958 29.088C118.566 30.08 118.87 31.232 118.87 32.544C118.87 33.824 118.566 34.968 117.958 35.976C117.35 36.968 116.51 37.752 115.438 38.328C114.366 38.904 113.15 39.192 111.79 39.192ZM111.79 36.12C112.414 36.12 112.974 35.976 113.47 35.688C113.966 35.4 114.358 34.992 114.646 34.464C114.934 33.92 115.078 33.28 115.078 32.544C115.078 31.792 114.934 31.152 114.646 30.624C114.358 30.096 113.966 29.688 113.47 29.4C112.974 29.112 112.414 28.968 111.79 28.968C111.166 28.968 110.606 29.112 110.11 29.4C109.614 29.688 109.214 30.096 108.91 30.624C108.622 31.152 108.478 31.792 108.478 32.544C108.478 33.28 108.622 33.92 108.91 34.464C109.214 34.992 109.614 35.4 110.11 35.688C110.606 35.976 111.166 36.12 111.79 36.12ZM127.445 43.848C126.229 43.848 125.053 43.696 123.917 43.392C122.797 43.104 121.861 42.664 121.109 42.072L122.597 39.384C123.141 39.832 123.829 40.184 124.661 40.44C125.509 40.712 126.341 40.848 127.157 40.848C128.485 40.848 129.445 40.552 130.037 39.96C130.645 39.368 130.949 38.488 130.949 37.32V35.376L131.189 32.136L131.141 28.872V26.088H134.693V36.84C134.693 39.24 134.069 41.008 132.821 42.144C131.573 43.28 129.781 43.848 127.445 43.848ZM126.869 38.376C125.669 38.376 124.581 38.12 123.605 37.608C122.645 37.08 121.869 36.352 121.277 35.424C120.701 34.48 120.413 33.384 120.413 32.136C120.413 30.872 120.701 29.776 121.277 28.848C121.869 27.904 122.645 27.176 123.605 26.664C124.581 26.152 125.669 25.896 126.869 25.896C127.957 25.896 128.917 26.12 129.749 26.568C130.581 27 131.229 27.68 131.693 28.608C132.157 29.52 132.389 30.696 132.389 32.136C132.389 33.56 132.157 34.736 131.693 35.664C131.229 36.576 130.581 37.256 129.749 37.704C128.917 38.152 127.957 38.376 126.869 38.376ZM127.613 35.304C128.269 35.304 128.853 35.176 129.365 34.92C129.877 34.648 130.277 34.272 130.565 33.792C130.853 33.312 130.997 32.76 130.997 32.136C130.997 31.496 130.853 30.944 130.565 30.48C130.277 30 129.877 29.632 129.365 29.376C128.853 29.104 128.269 28.968 127.613 28.968C126.957 28.968 126.373 29.104 125.861 29.376C125.349 29.632 124.941 30 124.637 30.48C124.349 30.944 124.205 31.496 124.205 32.136C124.205 32.76 124.349 33.312 124.637 33.792C124.941 34.272 125.349 34.648 125.861 34.92C126.373 35.176 126.957 35.304 127.613 35.304ZM138.177 39V21.192H141.921V39H138.177ZM151.804 39.192C150.332 39.192 149.036 38.904 147.916 38.328C146.812 37.752 145.956 36.968 145.348 35.976C144.74 34.968 144.436 33.824 144.436 32.544C144.436 31.248 144.732 30.104 145.324 29.112C145.932 28.104 146.756 27.32 147.796 26.76C148.836 26.184 150.012 25.896 151.324 25.896C152.588 25.896 153.724 26.168 154.732 26.712C155.756 27.24 156.564 28.008 157.156 29.016C157.748 30.008 158.044 31.2 158.044 32.592C158.044 32.736 158.036 32.904 158.02 33.096C158.004 33.272 157.988 33.44 157.972 33.6H147.484V31.416H156.004L154.564 32.064C154.564 31.392 154.428 30.808 154.156 30.312C153.884 29.816 153.508 29.432 153.028 29.16C152.548 28.872 151.988 28.728 151.348 28.728C150.708 28.728 150.14 28.872 149.644 29.16C149.164 29.432 148.788 29.824 148.516 30.336C148.244 30.832 148.108 31.424 148.108 32.112V32.688C148.108 33.392 148.26 34.016 148.564 34.56C148.884 35.088 149.324 35.496 149.884 35.784C150.46 36.056 151.132 36.192 151.9 36.192C152.588 36.192 153.188 36.088 153.7 35.88C154.228 35.672 154.708 35.36 155.14 34.944L157.132 37.104C156.54 37.776 155.796 38.296 154.9 38.664C154.004 39.016 152.972 39.192 151.804 39.192ZM167.597 39V22.2H174.869C176.373 22.2 177.669 22.448 178.757 22.944C179.845 23.424 180.685 24.12 181.277 25.032C181.869 25.944 182.165 27.032 182.165 28.296C182.165 29.544 181.869 30.624 181.277 31.536C180.685 32.448 179.845 33.152 178.757 33.648C177.669 34.128 176.373 34.368 174.869 34.368H169.757L171.485 32.616V39H167.597ZM171.485 33.048L169.757 31.2H174.653C175.853 31.2 176.749 30.944 177.341 30.432C177.933 29.92 178.229 29.208 178.229 28.296C178.229 27.368 177.933 26.648 177.341 26.136C176.749 25.624 175.853 25.368 174.653 25.368H169.757L171.485 23.52V33.048ZM184.912 39V21.192H188.656V39H184.912ZM200.05 39V36.48L199.81 35.928V31.416C199.81 30.616 199.562 29.992 199.066 29.544C198.586 29.096 197.842 28.872 196.834 28.872C196.146 28.872 195.466 28.984 194.794 29.208C194.138 29.416 193.578 29.704 193.114 30.072L191.77 27.456C192.474 26.96 193.322 26.576 194.314 26.304C195.306 26.032 196.314 25.896 197.338 25.896C199.306 25.896 200.834 26.36 201.922 27.288C203.01 28.216 203.554 29.664 203.554 31.632V39H200.05ZM196.114 39.192C195.106 39.192 194.242 39.024 193.522 38.688C192.802 38.336 192.25 37.864 191.866 37.272C191.482 36.68 191.29 36.016 191.29 35.28C191.29 34.512 191.474 33.84 191.842 33.264C192.226 32.688 192.826 32.24 193.642 31.92C194.458 31.584 195.522 31.416 196.834 31.416H200.266V33.6H197.242C196.362 33.6 195.754 33.744 195.418 34.032C195.098 34.32 194.938 34.68 194.938 35.112C194.938 35.592 195.122 35.976 195.49 36.264C195.874 36.536 196.394 36.672 197.05 36.672C197.674 36.672 198.234 36.528 198.73 36.24C199.226 35.936 199.586 35.496 199.81 34.92L200.386 36.648C200.114 37.48 199.618 38.112 198.898 38.544C198.178 38.976 197.25 39.192 196.114 39.192ZM208.34 43.848C207.668 43.848 207.004 43.744 206.348 43.536C205.692 43.328 205.156 43.04 204.74 42.672L206.108 40.008C206.396 40.264 206.724 40.464 207.092 40.608C207.476 40.752 207.852 40.824 208.22 40.824C208.748 40.824 209.164 40.696 209.468 40.44C209.788 40.2 210.076 39.792 210.332 39.216L211.004 37.632L211.292 37.224L215.924 26.088H219.524L213.692 39.792C213.276 40.832 212.796 41.648 212.252 42.24C211.724 42.832 211.132 43.248 210.476 43.488C209.836 43.728 209.124 43.848 208.34 43.848ZM210.548 39.504L204.788 26.088H208.652L213.116 36.888L210.548 39.504Z"
        fill="#181818" />
</svg>