<svg width="76" height="77" viewBox="0 0 76 77" fill="none" xmlns="http://www.w3.org/2000/svg">
    <g clip-path="url(#clip0_31_82)">
        <g clip-path="url(#clip1_31_82)">
            <path
                d="M37.8599 0.00012207C24.4937 0.00012207 13.6676 10.7901 13.6676 24.1117C13.6676 37.4334 24.4937 48.2233 37.8599 48.2233C40.4606 48.2233 43.0613 47.8013 45.541 46.9876C49.321 43.8832 51.5286 39.3322 51.5588 34.3591V26.6434C51.1657 19.7716 44.5128 15.4315 39.1603 11.9655C37.7087 11.0312 36.3479 10.127 35.1685 9.22281L34.9266 13.2916C34.9266 13.5328 34.8056 13.9246 34.2916 14.1657C33.4146 14.5575 30.4208 16.0645 28.2737 18.6565C26.3686 20.9471 25.5218 22.7253 25.673 24.0213C25.794 25.2269 26.7919 26.2215 28.4552 27.5476C29.2717 28.1805 30.1789 28.06 31.6909 27.7887C33.717 27.4271 36.4991 26.8845 39.7953 29.3861L38.6159 30.9232C36.0153 28.9642 33.9892 29.3258 32.0538 29.6875C30.451 29.9889 28.818 30.2903 27.2455 29.0847C25.5218 27.7285 23.9493 26.342 23.7074 24.2624C23.4957 22.3636 24.4634 20.1936 26.7315 17.4509C28.818 14.9192 31.5094 13.3519 32.961 12.6286L33.4751 5.12384L34.9871 6.54039C36.2572 7.74597 38.1926 8.98169 40.2489 10.338C45.9644 14.0451 53.1011 18.6866 53.5245 26.5831V34.7208C53.4337 38.4581 52.2241 41.9844 50.1375 44.9381C57.2743 40.7487 62.0825 33.0029 62.0825 24.1419C62.0523 10.7901 51.2262 0.00012207 37.8599 0.00012207ZM35.0778 21.0978C34.4428 21.7307 33.3843 21.7307 32.7191 21.0978C32.0538 20.4648 32.084 19.41 32.7191 18.7469C33.3541 18.114 34.4125 18.114 35.0778 18.7469C35.7431 19.3798 35.7129 20.4648 35.0778 21.0978Z"
                fill="white" />
        </g>
        <g clip-path="url(#clip2_31_82)">
            <path
                d="M13.0806 71.7114C13.0806 71.8353 13.091 71.9901 13.1117 72.1759C13.1324 72.3617 13.1531 72.5579 13.1739 72.7643C13.1946 72.9708 13.2153 73.1617 13.236 73.3372C13.2567 73.5127 13.2671 73.6417 13.2671 73.7243C13.2671 74.612 12.8632 75.0559 12.0553 75.0559C11.3925 75.0559 10.9264 74.8391 10.6571 74.4056L10.3775 72.1759V71.9282C10.3775 71.7837 10.3671 71.5979 10.3464 71.3708C10.3257 71.1437 10.2998 70.9166 10.2687 70.6895C10.2377 70.4624 10.2118 70.256 10.191 70.0702C10.1703 69.8844 10.16 69.7502 10.16 69.6676C10.1807 69.5231 10.1962 69.3837 10.2066 69.2496C10.2169 69.1154 10.2221 68.976 10.2221 68.8315C10.2221 68.6044 10.2118 68.3928 10.191 68.1967C10.1703 68.0006 10.1393 67.7993 10.0978 67.5928C9.93212 67.6341 9.57998 67.6909 9.04142 67.7631C8.50285 67.8354 7.84001 67.8715 7.05287 67.8715C6.70074 67.8715 6.37449 67.8612 6.07414 67.8406C5.77378 67.8199 5.49932 67.7889 5.25076 67.7477C5.00219 67.6238 4.2047 67.5619 2.85829 67.5619C2.81686 68.0367 2.78579 68.4754 2.76507 68.8779C2.74436 69.2805 2.734 69.647 2.734 69.9773C2.734 70.6586 2.78579 71.1747 2.88936 71.5256C2.97221 72.5372 3.03954 73.3011 3.09132 73.8172C3.14311 74.3333 3.17935 74.7049 3.20007 74.932C3.22078 75.1591 3.23114 75.2933 3.23114 75.3346C3.23114 75.3759 3.23114 75.4275 3.23114 75.4894C3.23114 76.0881 2.81686 76.3874 1.9883 76.3874C1.6983 76.3874 1.44456 76.3307 1.22706 76.2171C1.00956 76.1036 0.828316 75.9075 0.683318 75.6288C0.53832 75.3501 0.424393 74.963 0.341537 74.4675C0.258681 73.972 0.206896 73.3527 0.186182 72.6095C0.0618977 72.0934 -0.000244141 71.4121 -0.000244141 70.5656C-0.000244141 70.2973 0.00493434 70.0495 0.0152913 69.8224C0.0256483 69.5954 0.0308268 69.3992 0.0308268 69.2341C0.0308268 69.0689 0.0256483 68.9296 0.0152913 68.816C0.00493434 68.7025 -0.000244141 68.6044 -0.000244141 68.5218C-0.000244141 68.5631 -0.000244141 68.4289 -0.000244141 68.1193C-0.000244141 67.8096 0.0152913 67.4431 0.0463623 67.0199C0.0774333 66.5967 0.113683 66.1735 0.155111 65.7503C0.196539 65.3271 0.258681 65.0122 0.341537 64.8058C0.341537 64.7645 0.336358 64.718 0.326001 64.6664C0.315644 64.6148 0.310466 64.5581 0.310466 64.4961C0.310466 64.0419 0.33118 63.6394 0.372608 63.2884C0.414036 62.9374 0.460642 62.5968 0.512427 62.2665C0.564212 61.9362 0.626354 61.5904 0.698853 61.2291C0.771352 60.8678 0.838673 60.4394 0.900815 59.944C1.00438 59.242 1.12867 58.7259 1.27367 58.3956C1.41866 58.0653 1.75009 57.9001 2.26794 57.9001C2.53722 57.9001 2.82204 57.993 3.12239 58.1788C3.42274 58.3647 3.57292 58.633 3.57292 58.984C3.57292 59.1698 3.56774 59.4124 3.55739 59.7117C3.54703 60.0111 3.52114 60.393 3.47971 60.8575C3.43828 61.322 3.38649 61.8846 3.32435 62.5452C3.26221 63.2058 3.17936 63.9903 3.07579 64.8987C3.34507 65.0019 3.71792 65.0535 4.19434 65.0535C4.36005 65.0535 4.49987 65.0484 4.6138 65.038C4.72773 65.0277 4.83647 65.0226 4.94004 65.0226C5.23004 65.0226 5.432 65.0484 5.54593 65.1C5.65986 65.1516 5.85146 65.1774 6.12074 65.1774C6.68002 65.1774 7.10466 65.1619 7.39465 65.1309C7.68465 65.1 7.82965 65.0948 7.82965 65.1155H8.29571C8.70999 65.1155 9.09838 65.1 9.46088 65.069C9.82337 65.038 10.0046 64.909 10.0046 64.6819C10.0046 64.1245 9.91141 63.3607 9.72498 62.3904V61.833C9.72498 61.5439 9.71462 61.2601 9.69391 60.9814C9.67319 60.7027 9.63177 60.4498 9.56962 60.2227C9.56962 59.3969 10.0875 58.984 11.1232 58.984C11.5996 58.984 11.9362 59.2266 12.133 59.7117C12.3298 60.1969 12.4644 60.7698 12.5369 61.4304C12.6094 62.091 12.6508 62.7671 12.6612 63.4587C12.6715 64.1503 12.7389 64.7026 12.8632 65.1155C12.8632 65.6522 12.8787 66.287 12.9098 67.0199C12.9408 67.7528 12.9978 68.6044 13.0806 69.5747C13.0599 69.6779 13.0496 69.8018 13.0496 69.9463C13.0496 70.0908 13.0496 70.2457 13.0496 70.4108C13.0496 70.5966 13.0496 70.7979 13.0496 71.0147C13.0496 71.2314 13.0599 71.4637 13.0806 71.7114ZM35.2964 66.6638L35.2343 68.8315C34.965 69.905 34.1986 71.1437 32.935 72.5475C32.7693 72.6095 32.557 72.7333 32.2981 72.9191C32.0391 73.1049 31.7077 73.2959 31.3038 73.492C30.8999 73.6882 30.4079 73.8585 29.8279 74.003C29.2479 74.1475 28.5644 74.2198 27.7772 74.2198C26.203 74.2198 24.8876 73.8017 23.8312 72.9656C22.7748 72.1295 21.9566 70.8134 21.3766 69.0173C21.3559 68.8728 21.3455 68.7283 21.3455 68.5838C21.3455 68.4392 21.3455 68.2844 21.3455 68.1193C21.3455 66.8393 21.4802 65.709 21.7495 64.7284C22.0187 63.7477 22.3812 62.8962 22.8369 62.1736C23.2927 61.451 23.8157 60.842 24.406 60.3465C24.9964 59.8511 25.6126 59.4485 26.2548 59.1388C27.3112 58.8498 28.3469 58.7053 29.3619 58.7053C30.0868 58.7053 30.8015 58.8911 31.5058 59.2627C32.21 59.6343 32.8366 60.1607 33.3855 60.842C33.9345 61.5233 34.3798 62.3542 34.7216 63.3349C35.0634 64.3155 35.255 65.4251 35.2964 66.6638ZM32.3757 68.7386C32.5207 67.8922 32.5932 67.2315 32.5932 66.7567C32.5932 65.9722 32.4793 65.2496 32.2515 64.589C32.0236 63.9284 31.7543 63.3555 31.4436 62.8703C31.1329 62.3852 30.8067 62.0033 30.4649 61.7246C30.1231 61.4459 29.8383 61.3065 29.6104 61.3065C28.5126 61.3065 27.6167 61.5491 26.9228 62.0342C26.2289 62.5194 25.6851 63.1026 25.2916 63.7839C24.898 64.4652 24.6287 65.1774 24.4837 65.9206C24.3387 66.6638 24.2662 67.2935 24.2662 67.8096C24.2662 68.2844 24.3439 68.7438 24.4992 69.1876C24.6546 69.6315 24.8824 70.0237 25.1828 70.3644C25.4832 70.705 25.8405 70.9785 26.2548 71.185C26.669 71.3914 27.1455 71.4947 27.684 71.4947C28.9476 71.4947 29.9418 71.2624 30.6668 70.7979C31.3918 70.3334 31.9615 69.647 32.3757 68.7386ZM55.3061 70.7205C55.244 70.9682 55.0938 71.2676 54.8556 71.6185C54.6174 71.9695 54.3222 72.3256 53.9701 72.6869C53.618 73.0482 53.2399 73.3733 52.836 73.6624C52.4321 73.9514 52.0437 74.1578 51.6708 74.2817C50.5937 74.7565 49.3819 74.9939 48.0355 74.9939C47.6005 74.9939 47.2225 74.9836 46.9014 74.963C46.5804 74.9423 46.2645 74.8804 45.9538 74.7772C45.6431 74.6739 45.3323 74.5088 45.0216 74.2817C44.7109 74.0546 44.3588 73.7243 43.9652 73.2907C43.5302 72.8366 43.1884 72.3875 42.9399 71.9437C42.6913 71.4998 42.5049 71.0714 42.3806 70.6586C42.2563 70.2457 42.1735 69.8482 42.132 69.4663C42.0906 69.0844 42.0699 68.7386 42.0699 68.4289C42.0699 67.7477 42.1527 66.9425 42.3185 66.0135C42.4842 65.0845 42.9295 63.949 43.6545 62.6071C43.9238 62.1117 44.1309 61.7194 44.2759 61.4304C44.4209 61.1414 44.5038 60.9452 44.5245 60.842L46.4509 59.6653C47.1138 59.273 47.7455 58.9582 48.3462 58.7208C48.9469 58.4834 49.6098 58.3647 50.3348 58.3647C50.5419 58.3647 50.8526 58.3647 51.2669 58.3647C51.6812 58.3647 52.0903 58.4111 52.4942 58.504C52.8981 58.5969 53.2555 58.7621 53.5662 58.9995C53.8769 59.2369 54.0322 59.5827 54.0322 60.0369C54.0322 60.8007 53.5765 61.2446 52.6651 61.3685C52.6858 61.3685 52.6237 61.3581 52.4787 61.3375C52.3337 61.3168 52.1369 61.2962 51.8883 61.2755C51.6398 61.2549 51.3601 61.2343 51.0494 61.2136C50.7387 61.193 50.428 61.1826 50.1173 61.1826C49.5787 61.1826 49.035 61.3323 48.4861 61.6317C47.9371 61.931 47.2691 62.442 46.482 63.1645C46.0677 64.0316 45.7622 64.7077 45.5654 65.1929C45.3686 65.678 45.2702 66.0032 45.2702 66.1683C45.0424 66.5812 44.9284 67.1902 44.9284 67.9954C44.9284 69.4818 45.1977 70.5502 45.7363 71.2005C46.2748 71.8508 47.0102 72.1759 47.9423 72.1759C48.543 72.1759 49.4751 72.0108 50.7387 71.6805C51.5051 71.2263 52.168 70.5037 52.7272 69.5128C53.0794 69.1618 53.4419 68.9863 53.8147 68.9863C54.2083 68.9863 54.5604 69.1412 54.8711 69.4508C55.1819 69.7605 55.3372 70.1115 55.3372 70.5037C55.3372 70.545 55.332 70.5811 55.3217 70.6121C55.3113 70.6431 55.3061 70.6792 55.3061 70.7205ZM75.6887 75.1797C75.6059 75.572 75.2226 75.7681 74.5391 75.7681C73.9798 75.7681 73.5759 75.6442 73.3273 75.3965C73.2238 75.0455 73.0788 74.6172 72.8923 74.1114C72.7059 73.6056 72.4884 73.0224 72.2398 72.3617C72.1156 71.5566 71.9964 70.9889 71.8825 70.6586C71.7686 70.3282 71.6288 70.0805 71.4631 69.9153C71.1524 69.936 70.707 69.9721 70.127 70.0237C69.547 70.0753 68.936 70.1373 68.2938 70.2095C67.6517 70.2818 67.051 70.3747 66.4917 70.4882C65.9324 70.6018 65.5285 70.7205 65.2799 70.8444C65.1764 71.3605 65.0521 71.9282 64.9071 72.5475C64.7621 73.1669 64.586 73.8275 64.3789 74.5294C64.3167 74.7359 64.1717 74.8855 63.9439 74.9784C63.716 75.0714 63.4364 75.1178 63.105 75.1178C62.7735 75.1178 62.4887 75.061 62.2505 74.9475C62.0123 74.8339 61.8932 74.6636 61.8932 74.4365C61.8932 74.0236 62.1418 72.7953 62.6389 70.7515C62.6182 70.6689 62.6078 70.545 62.6078 70.3798C62.6078 70.1115 62.6441 69.776 62.7166 69.3734C62.7891 68.9708 62.8668 68.5838 62.9496 68.2122C63.0325 67.8406 63.1101 67.5206 63.1826 67.2522C63.2551 66.9838 63.2914 66.8393 63.2914 66.8186L64.2857 64.0626C64.3271 63.7942 64.4358 63.4329 64.6119 62.9787C64.788 62.5246 64.9796 62.06 65.1867 61.5852C65.3939 61.1104 65.5906 60.6614 65.7771 60.2382C65.9635 59.8149 66.0878 59.4898 66.1499 59.2627C66.3363 58.5814 66.8335 58.2408 67.6413 58.2408C68.3042 58.2408 68.7288 58.4885 68.9152 58.984C68.9152 58.984 68.9774 59.0975 69.1017 59.3246C69.226 59.5517 69.3917 59.8407 69.5988 60.1917C69.8059 60.5427 70.0286 60.9298 70.2668 61.353C70.505 61.7762 70.7277 62.1788 70.9349 62.5607C71.142 62.9426 71.3181 63.2832 71.4631 63.5826C71.6081 63.8819 71.6909 64.0832 71.7116 64.1864C71.8773 64.5787 72.0845 65.0277 72.3331 65.5335C72.5816 66.0393 72.882 66.6019 73.2341 67.2212C73.4412 67.4896 73.6329 67.8457 73.8089 68.2896C73.985 68.7334 74.1455 69.1825 74.2905 69.6366C74.4355 70.0908 74.5598 70.5037 74.6634 70.8753C74.7669 71.2469 74.8602 71.4947 74.943 71.6185C74.943 71.763 74.9896 71.985 75.0828 72.2843C75.176 72.5837 75.2693 72.8985 75.3625 73.2288C75.4557 73.5591 75.5437 73.8688 75.6266 74.1578C75.7094 74.4468 75.7509 74.6533 75.7509 74.7772C75.7509 74.8804 75.7301 75.0146 75.6887 75.1797ZM70.2513 67.376C70.0856 66.8806 69.9354 66.4574 69.8008 66.1064C69.6661 65.7554 69.5108 65.4045 69.3347 65.0535C69.1586 64.7026 68.9567 64.3052 68.7288 63.8613C68.501 63.4174 68.211 62.8445 67.8588 62.1426C67.3824 63.0097 67.0406 64.011 66.8335 65.1464C66.3985 65.9929 66.0878 66.8909 65.9014 67.8406C66.5435 67.6548 67.0613 67.5619 67.4549 67.5619C67.5999 67.5619 67.7035 67.5722 67.7656 67.5928C68.1178 67.5102 68.5424 67.469 69.0395 67.469C69.5367 67.469 69.9406 67.438 70.2513 67.376Z"
                fill="white" />
        </g>
    </g>
    <defs>
        <clipPath id="clip0_31_82">
            <rect width="75.7511" height="76.3877" fill="white" />
        </clipPath>
        <clipPath id="clip1_31_82">
            <rect width="48.4149" height="48.2232" fill="white" transform="translate(13.6678)" />
        </clipPath>
        <clipPath id="clip2_31_82">
            <rect width="75.7511" height="18.4873" fill="white" transform="translate(0 57.9004)" />
        </clipPath>
    </defs>
</svg>